<mxfile host="app.diagrams.net" agent="Mozilla/5.0 (Windows NT 10.0; Win64; x64) AppleWebKit/537.36 (KHTML, like Gecko) Chrome/137.0.0.0 Safari/537.36" version="27.1.1">
  <diagram name="페이지-1" id="dcy9qVcZz-aWITaqnOav">
    <mxGraphModel dx="930" dy="621" grid="1" gridSize="10" guides="1" tooltips="1" connect="1" arrows="1" fold="1" page="1" pageScale="1" pageWidth="827" pageHeight="1169" math="0" shadow="0">
      <root>
        <mxCell id="0" />
        <mxCell id="1" parent="0" />
        <mxCell id="1StAMrtWlvSxKoBdo9CY-22" style="edgeStyle=orthogonalEdgeStyle;rounded=0;orthogonalLoop=1;jettySize=auto;html=1;exitX=0.75;exitY=0.1;exitDx=0;exitDy=0;exitPerimeter=0;entryX=0;entryY=0.5;entryDx=0;entryDy=0;endArrow=none;startFill=0;" edge="1" parent="1" source="1StAMrtWlvSxKoBdo9CY-1" target="1StAMrtWlvSxKoBdo9CY-12">
          <mxGeometry relative="1" as="geometry">
            <Array as="points">
              <mxPoint x="90" y="150" />
              <mxPoint x="150" y="150" />
              <mxPoint x="150" y="123" />
            </Array>
          </mxGeometry>
        </mxCell>
        <mxCell id="1StAMrtWlvSxKoBdo9CY-23" style="edgeStyle=orthogonalEdgeStyle;rounded=0;orthogonalLoop=1;jettySize=auto;html=1;exitX=1;exitY=0.3333333333333333;exitDx=0;exitDy=0;exitPerimeter=0;entryX=0;entryY=0.5;entryDx=0;entryDy=0;endArrow=none;startFill=0;" edge="1" parent="1" source="1StAMrtWlvSxKoBdo9CY-1" target="1StAMrtWlvSxKoBdo9CY-8">
          <mxGeometry relative="1" as="geometry">
            <Array as="points">
              <mxPoint x="100" y="210" />
              <mxPoint x="120" y="210" />
              <mxPoint x="120" y="195" />
            </Array>
          </mxGeometry>
        </mxCell>
        <mxCell id="1StAMrtWlvSxKoBdo9CY-24" style="edgeStyle=orthogonalEdgeStyle;rounded=0;orthogonalLoop=1;jettySize=auto;html=1;exitX=1;exitY=0.3333333333333333;exitDx=0;exitDy=0;exitPerimeter=0;entryX=0;entryY=0.5;entryDx=0;entryDy=0;endArrow=none;startFill=0;" edge="1" parent="1" source="1StAMrtWlvSxKoBdo9CY-1" target="1StAMrtWlvSxKoBdo9CY-10">
          <mxGeometry relative="1" as="geometry" />
        </mxCell>
        <mxCell id="1StAMrtWlvSxKoBdo9CY-25" style="edgeStyle=orthogonalEdgeStyle;rounded=0;orthogonalLoop=1;jettySize=auto;html=1;exitX=1;exitY=0.3333333333333333;exitDx=0;exitDy=0;exitPerimeter=0;entryX=0;entryY=0.5;entryDx=0;entryDy=0;endArrow=none;startFill=0;" edge="1" parent="1" source="1StAMrtWlvSxKoBdo9CY-1" target="1StAMrtWlvSxKoBdo9CY-11">
          <mxGeometry relative="1" as="geometry">
            <Array as="points">
              <mxPoint x="100" y="260" />
              <mxPoint x="130" y="260" />
              <mxPoint x="130" y="315" />
            </Array>
          </mxGeometry>
        </mxCell>
        <mxCell id="1StAMrtWlvSxKoBdo9CY-1" value="이용자" style="shape=umlActor;verticalLabelPosition=bottom;verticalAlign=top;html=1;outlineConnect=0;" vertex="1" parent="1">
          <mxGeometry x="60" y="225" width="40" height="60" as="geometry" />
        </mxCell>
        <mxCell id="1StAMrtWlvSxKoBdo9CY-5" value="게시판&amp;nbsp;&lt;span style=&quot;background-color: transparent; color: light-dark(rgb(0, 0, 0), rgb(255, 255, 255));&quot;&gt;서비스&lt;/span&gt;" style="shape=umlFrame;whiteSpace=wrap;html=1;pointerEvents=0;width=80;height=30;" vertex="1" parent="1">
          <mxGeometry x="140" y="80" width="410" height="350" as="geometry" />
        </mxCell>
        <mxCell id="1StAMrtWlvSxKoBdo9CY-8" value="회원 가입" style="rounded=1;whiteSpace=wrap;html=1;arcSize=40;fontColor=#000000;fillColor=#ffffc0;strokeColor=#ff0000;" vertex="1" parent="1">
          <mxGeometry x="180" y="180" width="70" height="30" as="geometry" />
        </mxCell>
        <mxCell id="1StAMrtWlvSxKoBdo9CY-30" style="edgeStyle=orthogonalEdgeStyle;rounded=0;orthogonalLoop=1;jettySize=auto;html=1;exitX=1;exitY=0;exitDx=0;exitDy=0;entryX=0.25;entryY=1;entryDx=0;entryDy=0;dashed=1;" edge="1" parent="1" target="1StAMrtWlvSxKoBdo9CY-12">
          <mxGeometry relative="1" as="geometry">
            <mxPoint x="240" y="246.25" as="sourcePoint" />
            <mxPoint x="285" y="143.75" as="targetPoint" />
            <Array as="points">
              <mxPoint x="240" y="230" />
              <mxPoint x="278" y="230" />
            </Array>
          </mxGeometry>
        </mxCell>
        <mxCell id="1StAMrtWlvSxKoBdo9CY-10" value="게시판 보기" style="rounded=1;whiteSpace=wrap;html=1;arcSize=40;fontColor=#000000;fillColor=#ffffc0;strokeColor=#ff0000;" vertex="1" parent="1">
          <mxGeometry x="180" y="240" width="70" height="30" as="geometry" />
        </mxCell>
        <mxCell id="1StAMrtWlvSxKoBdo9CY-31" style="edgeStyle=orthogonalEdgeStyle;rounded=0;orthogonalLoop=1;jettySize=auto;html=1;exitX=0.5;exitY=0;exitDx=0;exitDy=0;dashed=1;" edge="1" parent="1" source="1StAMrtWlvSxKoBdo9CY-11" target="1StAMrtWlvSxKoBdo9CY-12">
          <mxGeometry relative="1" as="geometry">
            <Array as="points">
              <mxPoint x="215" y="280" />
              <mxPoint x="295" y="280" />
            </Array>
          </mxGeometry>
        </mxCell>
        <mxCell id="1StAMrtWlvSxKoBdo9CY-11" value="게시글 보기" style="rounded=1;whiteSpace=wrap;html=1;arcSize=40;fontColor=#000000;fillColor=#ffffc0;strokeColor=#ff0000;" vertex="1" parent="1">
          <mxGeometry x="180" y="300" width="70" height="30" as="geometry" />
        </mxCell>
        <mxCell id="1StAMrtWlvSxKoBdo9CY-26" style="edgeStyle=orthogonalEdgeStyle;rounded=0;orthogonalLoop=1;jettySize=auto;html=1;exitX=1;exitY=0.5;exitDx=0;exitDy=0;dashed=1;" edge="1" parent="1" source="1StAMrtWlvSxKoBdo9CY-12" target="1StAMrtWlvSxKoBdo9CY-13">
          <mxGeometry relative="1" as="geometry" />
        </mxCell>
        <mxCell id="1StAMrtWlvSxKoBdo9CY-27" value="&amp;lt;&amp;lt;include&amp;gt;&amp;gt;" style="edgeLabel;html=1;align=center;verticalAlign=middle;resizable=0;points=[];" vertex="1" connectable="0" parent="1StAMrtWlvSxKoBdo9CY-26">
          <mxGeometry x="0.0201" y="3" relative="1" as="geometry">
            <mxPoint as="offset" />
          </mxGeometry>
        </mxCell>
        <mxCell id="1StAMrtWlvSxKoBdo9CY-12" value="회원 로그인" style="rounded=1;whiteSpace=wrap;html=1;arcSize=40;fontColor=#000000;fillColor=#ffffc0;strokeColor=#ff0000;" vertex="1" parent="1">
          <mxGeometry x="260" y="107.5" width="70" height="30" as="geometry" />
        </mxCell>
        <mxCell id="1StAMrtWlvSxKoBdo9CY-13" value="인증&lt;span style=&quot;color: rgba(0, 0, 0, 0); font-family: monospace; font-size: 0px; text-align: start; text-wrap-mode: nowrap;&quot;&gt;%3CmxGraphModel%3E%3Croot%3E%3CmxCell%20id%3D%220%22%2F%3E%3CmxCell%20id%3D%221%22%20parent%3D%220%22%2F%3E%3CmxCell%20id%3D%222%22%20value%3D%22%EA%B2%8C%EC%8B%9C%EA%B8%80%20%EC%93%B0%EA%B8%B0%2C%EC%88%98%EC%A0%95%20%2C%20%EC%82%AD%EC%A0%9C%22%20style%3D%22rounded%3D1%3BwhiteSpace%3Dwrap%3Bhtml%3D1%3BarcSize%3D40%3BfontColor%3D%23000000%3BfillColor%3D%23ffffc0%3BstrokeColor%3D%23ff0000%3B%22%20vertex%3D%221%22%20parent%3D%221%22%3E%3CmxGeometry%20x%3D%22180%22%20y%3D%22260%22%20width%3D%2270%22%20height%3D%2230%22%20as%3D%22geometry%22%2F%3E%3C%2FmxCell%3E%3C%2Froot%3E%3C%2FmxGraphModel%3E&lt;/span&gt;" style="rounded=1;whiteSpace=wrap;html=1;arcSize=40;fontColor=#000000;fillColor=#ffffc0;strokeColor=#ff0000;" vertex="1" parent="1">
          <mxGeometry x="447.5" y="107.5" width="62.5" height="20" as="geometry" />
        </mxCell>
        <mxCell id="1StAMrtWlvSxKoBdo9CY-33" style="edgeStyle=orthogonalEdgeStyle;rounded=0;orthogonalLoop=1;jettySize=auto;html=1;exitX=0;exitY=0.25;exitDx=0;exitDy=0;dashed=1;" edge="1" parent="1" source="1StAMrtWlvSxKoBdo9CY-14">
          <mxGeometry relative="1" as="geometry">
            <mxPoint x="250" y="250" as="targetPoint" />
          </mxGeometry>
        </mxCell>
        <mxCell id="1StAMrtWlvSxKoBdo9CY-14" value="게시판 검색" style="rounded=1;whiteSpace=wrap;html=1;arcSize=40;fontColor=#000000;fillColor=#ffffc0;strokeColor=#ff0000;" vertex="1" parent="1">
          <mxGeometry x="400" y="240" width="70" height="30" as="geometry" />
        </mxCell>
        <mxCell id="1StAMrtWlvSxKoBdo9CY-32" style="edgeStyle=orthogonalEdgeStyle;rounded=0;orthogonalLoop=1;jettySize=auto;html=1;exitX=0;exitY=0.5;exitDx=0;exitDy=0;entryX=1;entryY=0.5;entryDx=0;entryDy=0;dashed=1;" edge="1" parent="1" source="1StAMrtWlvSxKoBdo9CY-15" target="1StAMrtWlvSxKoBdo9CY-10">
          <mxGeometry relative="1" as="geometry">
            <Array as="points">
              <mxPoint x="310" y="215" />
              <mxPoint x="310" y="255" />
            </Array>
          </mxGeometry>
        </mxCell>
        <mxCell id="1StAMrtWlvSxKoBdo9CY-15" value="게시판 정렬" style="rounded=1;whiteSpace=wrap;html=1;arcSize=40;fontColor=#000000;fillColor=#ffffc0;strokeColor=#ff0000;" vertex="1" parent="1">
          <mxGeometry x="400" y="200" width="70" height="30" as="geometry" />
        </mxCell>
        <mxCell id="1StAMrtWlvSxKoBdo9CY-34" style="edgeStyle=orthogonalEdgeStyle;rounded=0;orthogonalLoop=1;jettySize=auto;html=1;exitX=0;exitY=0.5;exitDx=0;exitDy=0;dashed=1;" edge="1" parent="1" source="1StAMrtWlvSxKoBdo9CY-16" target="1StAMrtWlvSxKoBdo9CY-11">
          <mxGeometry relative="1" as="geometry">
            <Array as="points">
              <mxPoint x="300" y="315" />
              <mxPoint x="300" y="315" />
            </Array>
          </mxGeometry>
        </mxCell>
        <mxCell id="1StAMrtWlvSxKoBdo9CY-16" value="게시글 쓰기,수정 , 삭제" style="rounded=1;whiteSpace=wrap;html=1;arcSize=40;fontColor=#000000;fillColor=#ffffc0;strokeColor=#ff0000;" vertex="1" parent="1">
          <mxGeometry x="410" y="285" width="90" height="40" as="geometry" />
        </mxCell>
        <mxCell id="1StAMrtWlvSxKoBdo9CY-17" value="댓글 보기, 쓰기 ,&lt;div&gt;&amp;nbsp;수정 , 삭제&lt;/div&gt;" style="rounded=1;whiteSpace=wrap;html=1;arcSize=40;fontColor=#000000;fillColor=#ffffc0;strokeColor=#ff0000;" vertex="1" parent="1">
          <mxGeometry x="390" y="360" width="102.5" height="40" as="geometry" />
        </mxCell>
        <mxCell id="1StAMrtWlvSxKoBdo9CY-28" style="edgeStyle=orthogonalEdgeStyle;rounded=0;orthogonalLoop=1;jettySize=auto;html=1;exitX=0;exitY=0.5;exitDx=0;exitDy=0;entryX=1;entryY=0.5;entryDx=0;entryDy=0;dashed=1;" edge="1" parent="1" source="1StAMrtWlvSxKoBdo9CY-18" target="1StAMrtWlvSxKoBdo9CY-12">
          <mxGeometry relative="1" as="geometry">
            <Array as="points">
              <mxPoint x="360" y="149" />
              <mxPoint x="360" y="123" />
            </Array>
          </mxGeometry>
        </mxCell>
        <mxCell id="1StAMrtWlvSxKoBdo9CY-29" value="&amp;lt;&amp;lt;extend&amp;gt;&amp;gt;" style="edgeLabel;html=1;align=center;verticalAlign=middle;resizable=0;points=[];" vertex="1" connectable="0" parent="1StAMrtWlvSxKoBdo9CY-28">
          <mxGeometry x="-0.0807" y="-2" relative="1" as="geometry">
            <mxPoint as="offset" />
          </mxGeometry>
        </mxCell>
        <mxCell id="1StAMrtWlvSxKoBdo9CY-18" value="로그인 실패" style="rounded=1;whiteSpace=wrap;html=1;arcSize=40;fontColor=#000000;fillColor=#ffffc0;strokeColor=#ff0000;" vertex="1" parent="1">
          <mxGeometry x="445" y="137.5" width="70" height="22.5" as="geometry" />
        </mxCell>
        <mxCell id="1StAMrtWlvSxKoBdo9CY-35" style="edgeStyle=orthogonalEdgeStyle;rounded=0;orthogonalLoop=1;jettySize=auto;html=1;exitX=0;exitY=0.5;exitDx=0;exitDy=0;entryX=0.906;entryY=0.927;entryDx=0;entryDy=0;entryPerimeter=0;dashed=1;" edge="1" parent="1" source="1StAMrtWlvSxKoBdo9CY-17" target="1StAMrtWlvSxKoBdo9CY-11">
          <mxGeometry relative="1" as="geometry" />
        </mxCell>
        <mxCell id="1StAMrtWlvSxKoBdo9CY-36" value="DB" style="shape=cylinder3;whiteSpace=wrap;html=1;boundedLbl=1;backgroundOutline=1;size=15;" vertex="1" parent="1">
          <mxGeometry x="600" y="195" width="60" height="80" as="geometry" />
        </mxCell>
        <mxCell id="1StAMrtWlvSxKoBdo9CY-37" style="edgeStyle=orthogonalEdgeStyle;rounded=0;orthogonalLoop=1;jettySize=auto;html=1;exitX=1;exitY=0.5;exitDx=0;exitDy=0;entryX=0;entryY=0.5;entryDx=0;entryDy=0;entryPerimeter=0;endArrow=none;startFill=0;" edge="1" parent="1" source="1StAMrtWlvSxKoBdo9CY-13" target="1StAMrtWlvSxKoBdo9CY-36">
          <mxGeometry relative="1" as="geometry">
            <Array as="points">
              <mxPoint x="570" y="117" />
              <mxPoint x="570" y="235" />
            </Array>
          </mxGeometry>
        </mxCell>
        <mxCell id="1StAMrtWlvSxKoBdo9CY-39" style="edgeStyle=orthogonalEdgeStyle;rounded=0;orthogonalLoop=1;jettySize=auto;html=1;exitX=0.851;exitY=0.927;exitDx=0;exitDy=0;entryX=0;entryY=0;entryDx=0;entryDy=15;entryPerimeter=0;exitPerimeter=0;endArrow=none;startFill=0;" edge="1" parent="1" source="1StAMrtWlvSxKoBdo9CY-10" target="1StAMrtWlvSxKoBdo9CY-36">
          <mxGeometry relative="1" as="geometry">
            <Array as="points">
              <mxPoint x="240" y="270" />
              <mxPoint x="380" y="270" />
              <mxPoint x="380" y="190" />
              <mxPoint x="600" y="190" />
            </Array>
          </mxGeometry>
        </mxCell>
        <mxCell id="1StAMrtWlvSxKoBdo9CY-40" style="edgeStyle=orthogonalEdgeStyle;rounded=0;orthogonalLoop=1;jettySize=auto;html=1;exitX=0.5;exitY=1;exitDx=0;exitDy=0;entryX=0.127;entryY=0.88;entryDx=0;entryDy=0;entryPerimeter=0;endArrow=none;startFill=0;" edge="1" parent="1" source="1StAMrtWlvSxKoBdo9CY-11" target="1StAMrtWlvSxKoBdo9CY-36">
          <mxGeometry relative="1" as="geometry">
            <Array as="points">
              <mxPoint x="250" y="330" />
              <mxPoint x="250" y="340" />
              <mxPoint x="608" y="340" />
            </Array>
          </mxGeometry>
        </mxCell>
        <mxCell id="1StAMrtWlvSxKoBdo9CY-42" style="edgeStyle=orthogonalEdgeStyle;rounded=0;orthogonalLoop=1;jettySize=auto;html=1;exitX=1;exitY=0.5;exitDx=0;exitDy=0;entryX=0;entryY=0;entryDx=0;entryDy=52.5;entryPerimeter=0;endArrow=none;startFill=0;" edge="1" parent="1" source="1StAMrtWlvSxKoBdo9CY-16" target="1StAMrtWlvSxKoBdo9CY-36">
          <mxGeometry relative="1" as="geometry" />
        </mxCell>
        <mxCell id="1StAMrtWlvSxKoBdo9CY-43" style="edgeStyle=orthogonalEdgeStyle;rounded=0;orthogonalLoop=1;jettySize=auto;html=1;exitX=1;exitY=0.5;exitDx=0;exitDy=0;entryX=0.667;entryY=0.938;entryDx=0;entryDy=0;entryPerimeter=0;endArrow=none;startFill=0;" edge="1" parent="1" source="1StAMrtWlvSxKoBdo9CY-17" target="1StAMrtWlvSxKoBdo9CY-36">
          <mxGeometry relative="1" as="geometry" />
        </mxCell>
      </root>
    </mxGraphModel>
  </diagram>
</mxfile>
